<?xml version="1.0" standalone="no"?><!DOCTYPE svg PUBLIC "-//W3C//DTD SVG 1.1//EN" "http://www.w3.org/Graphics/SVG/1.1/DTD/svg11.dtd"><svg t="1606991370191" class="icon" viewBox="0 0 1024 1024" version="1.1" xmlns="http://www.w3.org/2000/svg" p-id="10780" xmlns:xlink="http://www.w3.org/1999/xlink" width="200" height="200"><defs><style type="text/css"></style></defs><path d="M16.437291 514.60112a495.071666 495.071666 0 1 0 990.143332 0 495.071666 495.071666 0 1 0-990.143332 0z" fill="#000000" p-id="10781"></path><path d="M511.508957 1021.064968c-136.055198 0-264.135869-53.055017-360.318432-149.23758C55.007963 775.644826 1.952945 647.564155 1.952945 511.508957S55.007963 247.373088 151.190525 151.190525 375.453759 1.952945 511.508957 1.952945s264.135869 53.055017 360.318431 149.23758c96.182562 96.182562 149.23758 224.263233 149.23758 360.318432s-53.055017 264.135869-149.23758 360.318431c-96.182562 96.182562-224.100488 149.23758-360.318431 149.23758z m0-989.980587c-264.949596 0-480.424575 215.474979-480.424576 480.424576 0 264.949596 215.474979 480.424575 480.424576 480.424575 264.949596 0 480.424575-215.474979 480.424575-480.424575 0-264.949596-215.474979-480.424575-480.424575-480.424576z" fill="#51a5fb" p-id="10782"></path><path d="M140.612071 603.460137c-6.835309 0-13.019636-4.882364-14.3216-11.717672-5.045109-25.225545-7.486291-51.102072-7.486291-76.978599 0-56.635417 11.717673-111.155144 34.990272-162.257216 22.458872-49.311872 54.194236-92.927653 94.717854-129.382635 6.021582-5.3706 15.298073-4.882364 20.668672 0.976473 5.3706 6.021582 4.882364 15.298073-0.976472 20.668672-76.490363 68.841326-120.106144 167.13958-120.106144 269.83196 0 23.923581 2.278436 48.009908 6.998054 71.282509 1.627455 7.974527-3.5804 15.623563-11.554927 17.251017-0.976473 0.162745-1.952945 0.325491-2.929418 0.325491z" fill="#51a5fb" p-id="10783"></path><path d="M332.977196 514.60112a178.531761 178.531761 0 1 0 357.063522 0 178.531761 178.531761 0 1 0-357.063522 0z" fill="#d81e06" p-id="10784"></path><path d="M511.508957 707.779972c-106.435526 0-193.178852-86.580581-193.178852-193.178852 0-106.435526 86.580581-193.178852 193.178852-193.178852 106.435526 0 193.178852 86.580581 193.178852 193.178852s-86.580581 193.178852-193.178852 193.178852z m0-357.063522c-90.323726 0-163.884671 73.560944-163.884671 163.88467s73.560944 163.884671 163.884671 163.884671S675.393627 604.924846 675.393627 514.60112s-73.560944-163.884671-163.88467-163.88467z" fill="#ffeb0e" p-id="10785"></path><path d="M585.169176 515.841241c-0.90161-0.226216-1.804847-1.127826-2.481868-2.481868s-0.90161-3.611322-0.90161-7.221016c0-5.642385-1.354042-9.702884-3.837538-12.637185-2.481868-2.932673-6.770211-5.416169-12.635557-7.221015-6.09319-2.031063-11.509358-5.189952-15.796073-9.702884-4.286715-4.512931-7.898037-8.575058-10.83071-12.184752-2.708084-3.385105-4.963736-4.739148-6.770211-4.062127-1.806475 0.677021-2.708084 2.031063-3.158889 4.286716l-3.385106 28.659474c-0.903237 7.896409-2.031063 16.246879-3.158889 25.272741-1.129453 9.025863-2.257279 17.600921-3.158889 25.723546l-3.837538 33.396995c-0.224589 3.385105-1.127826 6.996427-2.932673 11.056926s-4.288343 7.673448-8.124253 10.832337c-3.609694 3.158889-8.348842 5.866974-14.215815 7.671821s-12.637184 2.708084-20.986026 2.031063c-8.348842-0.677021-15.569857-2.932673-21.889264-6.9948-6.317778-4.062126-10.83071-9.025863-13.989599-14.442031-2.932673-5.642385-4.062126-11.283142-3.385105-17.376332 0.677021-6.091562 4.062126-11.507731 9.9291-16.246879 5.866974-4.739148 11.733947-7.671821 18.051726-9.025862 6.319406-1.354042 12.186379-1.806475 17.827136-1.354043 5.642385 0.450805 10.606121 1.354042 14.892837 2.934301 4.288343 1.578631 7.447232 2.706457 9.478295 3.83591l6.994799-59.346756a15194.625003 15194.625003 0 0 0 6.770211-55.737063c0.450805-4.062126 2.031063-7.221016 4.286716-9.478295 2.483496-2.255652 5.416169-3.609694 9.025862-3.609694 2.934301 0 5.416169 0.90161 6.996427 2.708084 1.804847 1.804847 3.385105 4.286715 4.963737 7.445604 1.578631 3.158889 3.611322 6.543995 6.093189 10.606122 2.481868 4.062126 5.866974 7.898037 10.379905 11.960163 3.83591 3.609694 7.221016 6.542367 10.155317 8.122625 2.932673 1.806475 5.866974 3.385105 8.348841 4.963737 2.481868 1.580258 5.189952 3.160517 7.671821 5.19158 2.481868 2.031063 4.963736 4.963736 7.898037 9.252079 2.708084 4.060499 4.286715 8.122626 4.512931 11.958535 0.226216 4.062126-0.226216 7.673448-1.127826 10.606122-0.903237 3.158889-2.257279 5.640757-4.062126 7.447232-1.354042 2.708084-2.708084 3.609694-3.611322 3.157261z" fill="#ffffff" p-id="10786"></path></svg>